HIERARCHY
ROOT Hips
{
  OFFSET 1.44925e-005 102.336 -0.101585
  CHANNELS 6 Xposition Yposition Zposition Zrotation Xrotation Yrotation
  JOINT RightUpLeg
  {
    OFFSET -8.9458 -8.66707 0.101652
    CHANNELS 3 Zrotation Xrotation Yrotation
    JOINT RightLeg
    {
      OFFSET 0 -44.4227 1.3727
      CHANNELS 3 Zrotation Xrotation Yrotation
      JOINT RightFoot
      {
        OFFSET 0.253549 -42.0924 -1.46059
        CHANNELS 3 Zrotation Xrotation Yrotation
        JOINT RightToes
        {
          OFFSET 0.04 -4.41509 8.4991
          CHANNELS 3 Zrotation Xrotation Yrotation
          End Site
          {
            OFFSET -0.08 -0.137448 9.77979
          }
        }
      }
    }
  }
  JOINT Spine
  {
    OFFSET 0 11.8905 0
    CHANNELS 3 Zrotation Xrotation Yrotation
    JOINT Spine1
    {
      OFFSET 0 25.6574 0.127663
      CHANNELS 3 Zrotation Xrotation Yrotation
      JOINT HEad
      {
        OFFSET 0 8.73416 0.011341
        CHANNELS 3 Zrotation Xrotation Yrotation
        End Site
        {
          OFFSET -0.29 12.7742 2.51395
        }
      }
      JOINT LeftShoulder1
      {
        OFFSET 8.99 -0.362252 -0.22
        CHANNELS 3 Zrotation Xrotation Yrotation
        JOINT LeftArm
        {
          OFFSET 10.2827 -0.00337999 0.322123
          CHANNELS 3 Zrotation Xrotation Yrotation
          JOINT LeftForeArm
          {
            OFFSET 26.2597 0.099144 -1.42434
            CHANNELS 3 Zrotation Xrotation Yrotation
            JOINT LeftHand
            {
              OFFSET 22.0902 0.085362 1.02216
              CHANNELS 3 Zrotation Xrotation Yrotation
              End Site
              {
                OFFSET 13.419 -0.6 1.50291
              }
            }
          }
        }
      }
      JOINT RightShoulder
      {
        OFFSET -8.99 -0.362252 -0.22
        CHANNELS 3 Zrotation Xrotation Yrotation
        JOINT RightArm
        {
          OFFSET -10.2827 -0.00338 0.322123
          CHANNELS 3 Zrotation Xrotation Yrotation
          JOINT RightForeArm
          {
            OFFSET -26.364 0.099144 -1.42434
            CHANNELS 3 Zrotation Xrotation Yrotation
            JOINT RightHand
            {
              OFFSET -22.0324 0.085362 1.02216
              CHANNELS 3 Zrotation Xrotation Yrotation
              End Site
              {
                OFFSET -13.3284 -0.6 1.50291
              }
            }
          }
        }
      }
    }
  }
  JOINT LeftUpLeg
  {
    OFFSET 8.9458 -8.66707 0.101652
    CHANNELS 3 Zrotation Xrotation Yrotation
    JOINT LeftLeg
    {
      OFFSET 0 -44.4227 1.3727
      CHANNELS 3 Zrotation Xrotation Yrotation
      JOINT LeftFoot
      {
        OFFSET -0.253549 -42.0924 -1.46059
        CHANNELS 3 Zrotation Xrotation Yrotation
        JOINT LeftToes
        {
          OFFSET -0.04 -4.41509 8.4991
          CHANNELS 3 Zrotation Xrotation Yrotation
          End Site
          {
            OFFSET 0.08 -0.047448 9.77979
          }
        }
      }
    }
  }
}
MOTION
Frames:	10
Frame Time:	0.0333333
-42.2962 90.9793 101.647 -1.5739 4.68666 152.769 -26.4947 -43.5908 -19.1696 0.696154 40.2414 23.6311 27.404 8.75372 -4.04605 0.0462048 0.000530889 0.662642 7.52086 27.3972 1.74261 -10.7453 0.23264 6.02057 -0.165159 -27.9708 2.48374 -23.7655 2.92319 -6.21105 -63.8104 -5.98965 -45.0268 -18.6104 17.4545 -64.6383 20.5819 5.87639 -17.7189 31.2851 5.3262 10.1262 38.218 -0.590044 45.3563 -23.2754 29.0886 78.3722 -37.1761 7.95475 0.582497 21.0548 -14.7245 11.2781 0.403026 56.9821 -2.26722 -24.5411 -29.193 -4.7319 -1.30555e-009 8.75239e-006 -1.46341e-008 
-44.1357 91.096 102.56 -1.42352 3.51626 145.257 -27.4864 -43.2824 -31.3816 0.874239 34.3473 27.9056 40.3686 9.43309 -6.23872 0.0462048 0.000530889 0.662642 5.60828 27.9095 2.68654 -11.5163 -0.727919 6.96464 1.01857 -27.596 6.62123 -23.0424 2.89095 -6.32816 -65.2966 -8.13412 -45.2602 -17.3801 18.0597 -65.3921 20.228 6.00021 -17.4371 30.629 5.27301 10.2227 38.6829 0.696293 48.3415 -21.5831 29.8532 74.9979 -37.1548 7.6519 1.52059 22.5061 -13.8061 17.8963 0.52894 57.8731 -0.857935 -24.4367 -29.4519 -4.77058 -1.30555e-009 8.75239e-006 -1.46341e-008 
-45.6861 91.1569 103.549 -1.4134 3.05546 138.881 -29.0816 -42.9017 -41.4744 0.851321 35.8018 28.6538 45.168 5.13974 -5.41997 0.0462048 0.000530889 0.662642 3.59597 27.7187 3.48055 -11.0296 -0.382511 7.38371 2.10648 -26.4045 10.3489 -22.7114 2.89479 -6.44703 -65.3609 -9.34735 -46.4111 -16.0477 18.3844 -65.1631 18.6047 6.33198 -17.4574 30.0867 5.27082 10.4183 39.9855 1.0112 50.3277 -19.3752 30.1705 71.8199 -37.124 7.40757 2.27915 23.3981 -12.6637 22.9543 0.626356 58.409 0.325226 -25.4815 -29.1181 -4.90661 -1.30555e-009 8.75239e-006 -1.46341e-008 
-47.2981 91.5487 104.676 -0.894969 3.38204 133.796 -31.5251 -43.5126 -43.0947 0.699672 43.5832 24.8452 39.3528 0.541636 -3.05368 0.0462048 0.000530889 0.662642 3.19359 28.0557 3.75399 -10.2895 0.84169 7.33703 2.58445 -24.5131 13.1306 -22.4924 2.91188 -6.57714 -64.0626 -9.16197 -48.4006 -13.6975 18.8472 -64.1072 15.3599 7.02552 -17.2026 29.3712 5.17802 10.4329 42.6503 -0.40006 50.5586 -17.2049 29.7665 70.3389 -37.0021 7.3397 2.5165 23.2776 -11.1556 25.6058 0.75094 58.1186 2.32677 -26.1984 -28.4098 -4.87952 -1.30555e-009 8.75239e-006 -1.46341e-008 
-48.3992 91.935 105.568 -0.074224 4.00939 130.386 -34.3995 -44.0129 -39.3146 0.616953 52.3388 18.7541 29.4194 -0.877285 -1.8894 0.0462048 0.000530889 0.662642 3.93773 28.3881 3.244 -9.78378 1.66918 6.7055 2.50481 -22.092 15.3123 -22.1438 2.89767 -6.64338 -61.6551 -7.9962 -50.4722 -9.59589 19.9499 -62.3118 11.2721 7.92692 -16.3443 28.4106 4.91429 10.054 45.9511 -3.71055 48.7717 -14.9263 28.6146 71.0778 -36.5559 7.41131 2.3979 22.6514 -9.54114 26.2896 0.870027 57.3542 4.31089 -26.2503 -28.0682 -4.80495 -1.30555e-009 8.75239e-006 -1.46341e-008 
-48.5202 92.137 106.165 0.512072 4.26997 128.632 -37.0017 -43.133 -34.9908 0.395395 58.0443 13.9104 21.2637 -1.69481 -1.2623 0.0462048 0.000530889 0.662642 4.51722 27.4855 2.27183 -8.46107 2.06537 5.39762 2.10812 -19.5924 17.6488 -21.6587 2.84672 -6.62757 -58.508 -6.68915 -51.9541 -4.87735 21.593 -59.2698 8.39855 8.51456 -15.7934 27.4457 4.56618 9.40591 48.2377 -9.10396 45.47 -12.1969 27.0261 73.4649 -35.935 7.54891 2.10586 22.4284 -8.28654 25.9568 0.902072 56.3696 5.16329 -26.9727 -27.7427 -4.86212 -1.30555e-009 8.75239e-006 -1.46341e-008 
-47.9742 92.665 106.626 0.878623 3.80367 127.635 -38.2996 -40.4635 -31.5879 0.0380446 59.2225 8.43027 14.3188 -4.83016 -0.522401 0.0462048 0.000530889 0.662642 4.95938 25.334 1.29029 -5.23677 3.02396 3.65686 1.36379 -17.3139 20.4993 -21.0767 2.78895 -6.61963 -55.1059 -5.8257 -52.4719 -2.00527 22.8716 -54.4283 8.19846 8.55523 -15.7136 26.5949 4.22352 8.69284 48.671 -16.5425 41.6764 -9.45162 25.6395 76.3044 -35.858 7.77698 1.39633 22.7948 -7.14062 25.4847 0.881206 54.3923 5.75346 -28.2621 -26.582 -4.80257 -1.30555e-009 8.75239e-006 -1.46341e-008 
-46.8347 93.5555 107.025 1.13637 3.14132 126.385 -38.2793 -36.7244 -28.9677 -0.448553 56.273 0.677884 7.22352 -8.29818 -0.127495 0.0462048 0.000530889 0.662642 5.53401 22.6594 0.352177 -1.48229 4.51019 1.9273 0.064971 -14.9398 23.68 -20.4172 2.73975 -6.66949 -51.8444 -5.5459 -51.5818 -1.55128 23.0876 -48.2243 9.47502 8.38482 -14.8653 25.7873 3.88943 7.95208 47.726 -25.228 38.0084 -7.56808 24.8676 78.3669 -36.4305 8.1522 0.0976547 23.104 -5.26377 25.2569 0.889131 51.1336 7.24235 -28.7692 -24.7524 -4.40502 -1.30555e-009 8.75239e-006 -1.46341e-008 
-44.8494 94.4352 107.537 1.30379 2.71434 124.193 -37.6844 -32.9039 -26.9826 -0.843035 50.6951 -4.81756 2.4757 -10.237 -0.127035 0.0462048 0.000530889 0.662642 6.44796 20.0238 -0.588217 0.206737 5.69413 0.661283 -1.82241 -11.9687 26.9764 -19.8252 2.69481 -6.71255 -48.434 -5.49051 -48.8643 -2.10631 22.5129 -41.5873 10.1758 8.4223 -12.8495 24.993 3.5557 7.16952 45.8566 -33.833 34.4128 -6.60781 24.619 78.8568 -36.7371 8.66174 -1.55223 22.9575 -2.22447 24.7341 0.930126 46.8701 9.56762 -29.4057 -22.2227 -3.8135 -1.30555e-009 8.75239e-006 -1.46341e-008 
-42.1156 95.1109 108.296 1.74455 2.0573 120.792 -35.9086 -29.5946 -24.7393 -0.72667 44.6918 -3.75689 1.53315 -11.8389 -0.139616 0.0462048 0.000530889 0.662642 8.41424 17.715 -1.51729 -0.301831 6.43781 0.0178896 -3.9671 -8.32254 30.5722 -19.3925 2.64556 -6.68227 -43.8589 -4.59406 -44.3102 -3.14267 21.0715 -34.8354 9.89669 8.64876 -10.5446 24.2263 3.24401 6.40914 43.0849 -41.1907 31.0081 -5.76487 24.6353 77.4354 -36.3324 9.14716 -3.04586 22.9368 1.51116 22.7717 1.01004 42.6132 13.227 -32.2716 -18.1909 -2.99928 -1.30555e-009 8.75239e-006 -1.46341e-008 
